<svg id="Camada_1" data-name="Camada 1" xmlns="http://www.w3.org/2000/svg" viewBox="0 0 195.61 317.94"><defs><style>.cls-1{fill:#05a3df;}.cls-2{fill:#0789dc;}.cls-3{fill:#0a71da;}.cls-4{fill:#0598de;}.cls-5{fill:#0690dd;}.cls-6{fill:#0fadb0;}.cls-7{fill:#0977da;}.cls-8{fill:#07a8d3;}.cls-9{fill:#13b0a2;}.cls-10{fill:#1fb774;}.cls-11{fill:#087cda;}.cls-12{fill:#0e61d7;}.cls-13{fill:#0880db;}.cls-14{fill:#7c34a7;}.cls-15{fill:#0694dd;}.cls-16{fill:#0884db;}.cls-17{fill:#09aaca;}.cls-18{fill:#0babc2;}.cls-19{fill:#0dacb9;}.cls-20{fill:#1cb57f;}.cls-21{fill:#1bb388;}.cls-22{fill:#18b391;}.cls-23{fill:#15b197;}.cls-24{fill:#48c134;}.cls-25{fill:#613fb3;}.cls-26{fill:#22b966;}.cls-27{fill:#0b6bd9;}.cls-28{fill:#debe19;}.cls-29{fill:#28bd52;}.cls-30{fill:#404bc1;}.cls-31{fill:#0b6dd9;}.cls-32{fill:#1eb678;}.cls-33{fill:#0c62d8;}.cls-34{fill:#ddb118;}.cls-35{fill:#8a2da0;}.cls-36{fill:#ddb719;}.cls-37{fill:#dda917;}.cls-38{fill:#2356cd;}.cls-39{fill:#60c230;}.cls-40{fill:#5843b6;}.cls-41{fill:#dd8615;}.cls-42{fill:#dda317;}.cls-43{fill:#29bd4f;}.cls-44{fill:#4c47bc;}.cls-45{fill:#2bbf44;}.cls-46{fill:#d0c31c;}.cls-47{fill:#a9c323;}.cls-48{fill:#dbc319;}.cls-49{fill:#8bc228;}.cls-50{fill:#155bd4;}.cls-51{fill:#a11f95;}.cls-52{fill:#91289d;}.cls-53{fill:#6cc22e;}.cls-54{fill:#d4017a;}.cls-55{fill:#3250c6;}.cls-56{fill:#a81a93;}.cls-57{fill:#dd8e15;}.cls-58{fill:#30c138;}.cls-59{fill:#2b53ca;}.cls-60{fill:#2456cd;}.cls-61{fill:#b5138c;}.cls-62{fill:#25bb5f;}.cls-63{fill:#3f4cc1;}.cls-64{fill:#de9d17;}.cls-65{fill:#ae168f;}.cls-66{fill:#bb0f89;}.cls-67{fill:#dd9816;}.cls-68{fill:#29bb71;}.cls-69{fill:#44c133;}.cls-70{fill:#dd9416;}.cls-71{fill:#c20985;}.cls-72{fill:#dc7a16;}.cls-73{fill:#3150c6;}.cls-74{fill:#bcc31f;}.cls-75{fill:#9dc224;}.cls-76{fill:#b4c421;}.cls-77{fill:#80c22b;}.cls-78{fill:#95c225;}.cls-79{fill:#96269b;}.cls-80{fill:#ce0380;}.cls-81{fill:#9a2298;}.cls-82{fill:#c5c41e;}.cls-83{fill:#394ec3;}.cls-84{fill:#77c32b;}.cls-85{fill:#53c232;}.cls-86{fill:#d30761;}.cls-87{fill:#5fc230;}.cls-88{fill:#26bc5a;}.cls-89{fill:#3ac136;}.cls-90{fill:#1b58d1;}.cls-91{fill:#da6817;}.cls-92{fill:#d30370;}.cls-93{fill:#d30569;}.cls-94{fill:#db7116;}.cls-95{fill:#c70782;}.cls-96{fill:#d95f19;}.cls-97{fill:#d8511a;}.cls-98{fill:#d3095a;}.cls-99{fill:#4d47bb;}.cls-100{fill:#d30c4c;}.cls-101{fill:#5644b7;}.cls-102{fill:#d8471b;}.cls-103{fill:#d30a53;}.cls-104{fill:#693db0;}.cls-105{fill:#d30f43;}.cls-106{fill:#603fb3;}.cls-107{fill:#7339ab;}.cls-108{fill:#c0c41e;}.cls-109{fill:#d95819;}.cls-110{fill:#b2c322;}.cls-111{fill:#d6321d;}.cls-112{fill:#d31335;}.cls-113{fill:#d3113d;}.cls-114{fill:#d73d1d;}.cls-115{fill:#dcc119;}.cls-116{fill:#a7c323;}.cls-117{fill:#8334a6;}.cls-118{fill:#d4152c;}.cls-119{fill:#d5271e;}.cls-120{fill:#852793;}</style></defs><title>BFX</title><path class="cls-1" d="M115.93,195c.2-2.15,2-3.34,3-5a12.85,12.85,0,0,1,6.73-1.47q69.16,0,138.33,0c2.13,0,4.38-.31,6.08,1.51a12,12,0,0,1-4,6c-2.92,1.64-6.21,1.31-9.28,1.21-21.26-.65-42.52.26-63.79-.31-10.92-.29-21.94.21-32.89,0-12.8-.28-25.58,1-38.37,0C119.69,196.82,117.28,197.31,115.93,195Z" transform="translate(-95.22 -31.93)"/><path class="cls-2" d="M105.92,208l3-4a12.19,12.19,0,0,1,6.71-1.46q69.18,0,138.34,0c2.14,0,4.39-.3,6.09,1.52-.07,2-1.53,3-3,4-2,1.53-4.39,1.37-6.71,1.37q-68.91,0-137.83,0C110.26,209.39,107.81,209.89,105.92,208Z" transform="translate(-95.22 -31.93)"/><path class="cls-3" d="M184,222l-8-.15c-1.77-.65-3.61-.33-5.42-.33-22.19,0-44.37.89-66.56,1-2.42,0-5,.55-7-1.51a3.11,3.11,0,0,1,2-3,12.14,12.14,0,0,1,6.72-1.47q69.16,0,138.34,0c2.14,0,4.39-.3,6.09,1.52-1.1,1.26-1.15,3.32-3,4-6,2-12.13.67-18.16.75-7.9.1-15.82-.63-23.71.28-3.82.43-6.08-1.44-9.87-.54C192,222.85,187.31,221.75,184,222Z" transform="translate(-95.22 -31.93)"/><path class="cls-4" d="M115.93,195c9.11,1.63,18.25.65,27.4.49,11.47-.19,23,.85,34.43.36,12.66-.54,25.29.25,37.94,0,7-.13,14.1-.27,21.16-.05,9.73.3,19.47.2,29.2.27l-2,3c-2.27,1.27-4.75,1.37-7.27,1.37-38.13,0-76.25.13-114.38-.1-7.8,0-15.59,0-23.38.06-2.11,0-4.39.42-6.11-1.41C113,196.94,114.46,196,115.93,195Z" transform="translate(-95.22 -31.93)"/><path class="cls-5" d="M260.07,204.05,108.93,204l2-3c5.65-2.07,11.57-1.08,17.29-1.05,42.38.25,84.76,0,127.14.13,2.25,0,4.69-.71,6.72,1A3.12,3.12,0,0,1,260.07,204.05Z" transform="translate(-95.22 -31.93)"/><path class="cls-6" d="M125.91,181a3.14,3.14,0,0,1,2-3,12.16,12.16,0,0,1,6.72-1.47q69.18,0,138.34,0c2.14,0,4.39-.3,6.09,1.52l-2,3c-2.07,1.3-4.38,1.38-6.74,1.38q-69.13,0-138.29,0C129.91,182.41,127.64,182.79,125.91,181Z" transform="translate(-95.22 -31.93)"/><path class="cls-7" d="M250.08,218,98.93,218l2-3a11.72,11.72,0,0,1,6.22-1.43q69.16,0,138.33,0c2.28,0,4.73-.48,6.6,1.47A3.12,3.12,0,0,1,250.08,218Z" transform="translate(-95.22 -31.93)"/><path class="cls-8" d="M270.06,190.05,118.92,190,121.2,187c2.21-1.49,4.72-1.42,7.22-1.42q68.88,0,137.74,0c2.26,0,4.72-.51,6.62,1.39C272.46,188.55,271.23,189.27,270.06,190.05Z" transform="translate(-95.22 -31.93)"/><path class="cls-9" d="M279.06,178.06,127.91,178l2-3c2.44-1.35,5.09-1.38,7.77-1.38q68.13,0,136.27,0c2.43,0,5.06-.61,7.11,1.42A3.14,3.14,0,0,1,279.06,178.06Z" transform="translate(-95.22 -31.93)"/><path class="cls-10" d="M136.91,166a3.1,3.1,0,0,1,2-3c.68-.5,1.45-1.12,2.24-1,8.25,1.36,16.54-.22,24.79.39,4,.29,8,.09,12,0,11.74-.2,23.46.68,35.2.61,2,0,4,.23,6-.37,2.72-.82,5.51-.64,8.29-.54a17.41,17.41,0,0,0,7.8.19,133.92,133.92,0,0,1,13.44-.17,14.79,14.79,0,0,0,7.59.1,48.93,48.93,0,0,1,13.62-.17,12.52,12.52,0,0,0,8-.17c4.09.07,8.34-1.4,12.19,1.16l-1.93,3a14.52,14.52,0,0,1-7.26,1.38q-68.64,0-137.28,0C141.25,167.41,138.79,167.91,136.91,166Z" transform="translate(-95.22 -31.93)"/><path class="cls-11" d="M252.08,215,100.93,215l2-3c6.86-1.1,13.8-.61,20.68-.65,14.89-.09,29.8-.68,44.67-.05,10.78.45,21.53-.86,32.28.08a11,11,0,0,0,5.38,0,6,6,0,0,1,2,0,12.46,12.46,0,0,0,5.79.2c1.5.09,3-.27,4.49-.11a15.26,15.26,0,0,0,6.59,0,6.37,6.37,0,0,1,1.38,0,11.32,11.32,0,0,0,6.16-.31,10.11,10.11,0,0,1,4.38,0,12.66,12.66,0,0,0,7,.2c3.47-.18,6.94-.35,10.32.74A3.15,3.15,0,0,1,252.08,215Z" transform="translate(-95.22 -31.93)"/><path class="cls-12" d="M245.08,225l-7,10c-3,1.83-6.34,1.55-9.62,1.5-5.76-.07-11.53.3-17.28-.24-3.11-3.54-5.2-5.34-9.17-11.41,1.64-1.46,3.68-1.42,5.66-1.39,10.45.16,20.89-.2,31.34,0C241.14,223.57,243.37,223.25,245.08,225Z" transform="translate(-95.22 -31.93)"/><path class="cls-13" d="M254.08,212c-3.38,1.53-6.74,0-10.12,0a11,11,0,0,1-7,0h-5c-2,1.06-4,.24-6,0h-1c-2.33.29-4.66,1-7,0-1.34,0-2.67,1-4,0a8.08,8.08,0,0,1-6,0h-2a5.81,5.81,0,0,1-5,0c-9.87.16-19.7.76-29.59.65-13.05-.15-26.11-.26-39.18-.06-9.72.15-19.57,1.36-29.29-.63l2-2c1.77-1.29,3.82-.94,5.79-.94q69.81,0,139.64,0c1.93,0,4-.55,5.71,1C255.41,210.71,254.74,211.37,254.08,212Z" transform="translate(-95.22 -31.93)"/><path class="cls-14" d="M169.15,276a23.38,23.38,0,0,1,1.92-8,4.39,4.39,0,0,1,4.06-2.37c9.54-.24,19.08-.44,28.61.12a4.48,4.48,0,0,1,1.85.66c.89,4.46.22,6.9-2.09,10.16-2.3,1.33-4.84,1-7.31,1-6.81,0-13.63.06-20.44,0C173.45,277.52,171,277.78,169.15,276Z" transform="translate(-95.22 -31.93)"/><path class="cls-15" d="M262.07,201.05,110.92,201l2-2,118.8,0,32.34,0Z" transform="translate(-95.22 -31.93)"/><path class="cls-16" d="M256.07,210,104.93,210c.19-.73,0-1.67,1-2l151.15.08C256.87,208.78,257.11,209.73,256.07,210Z" transform="translate(-95.22 -31.93)"/><path class="cls-17" d="M272.78,187H121.2c0-1.13.89-1.58,1.72-2.05,2.08-1.29,4.39-1.37,6.74-1.37q69.15,0,138.29,0c2.12,0,4.39-.38,6.11,1.43Z" transform="translate(-95.22 -31.93)"/><path class="cls-18" d="M274.06,185.06,122.92,185,124.2,183c1.77-1.26,3.81-1,5.78-1q70.28,0,140.55,0c1.79,0,3.7-.4,5.25,1C275.74,184.15,274.89,184.59,274.06,185.06Z" transform="translate(-95.22 -31.93)"/><path class="cls-19" d="M275.78,183H124.2c0-1.13.88-1.58,1.71-2l151.14.08C276.63,181.71,276.2,182.36,275.78,183Z" transform="translate(-95.22 -31.93)"/><path class="cls-20" d="M287.05,167.07c-.42.65-.85,1.3-1.28,2-2.21,1.49-4.72,1.42-7.22,1.42q-68.87,0-137.74,0c-2.26,0-4.71.51-6.62-1.39,0-1.13.89-1.57,1.72-2,1.41-.76,2.94-.42,4.41-.42q71.19,0,142.36,0C284.14,166.56,285.68,166.15,287.05,167.07Z" transform="translate(-95.22 -31.93)"/><path class="cls-21" d="M134.19,169H285.77c0,1.14-.89,1.58-1.72,2-2,1.53-4.38,1.36-6.71,1.36q-68.91,0-137.82,0c-2.27,0-4.73.5-6.61-1.42Z" transform="translate(-95.22 -31.93)"/><path class="cls-22" d="M132.91,171l151.14.08c-.19.73,0,1.67-1,2-2,1.19-4.17.95-6.32.95q-69.56,0-139.11,0c-1.93,0-4,.55-5.71-1C132.11,172.25,131.88,171.31,132.91,171Z" transform="translate(-95.22 -31.93)"/><path class="cls-23" d="M131.91,173l151.14.08-2,2L129.91,175Z" transform="translate(-95.22 -31.93)"/><path class="cls-24" d="M210.1,142.07a20.22,20.22,0,0,1-2,9c-8.09,2.3-16.18,2.79-24.28,0-3-2.29-3.4-5.89-4.68-9a2.87,2.87,0,0,1,1.64-1.06,139.8,139.8,0,0,1,27.67,0A2.78,2.78,0,0,1,210.1,142.07Z" transform="translate(-95.22 -31.93)"/><path class="cls-25" d="M205.81,267H176.87c-2,0-4-.17-5.8,1-.25-2.85.86-5.44,1.57-8.1a5.6,5.6,0,0,1,2.24-1.05c10.56-.36,21.13-1.22,31.66.5C209.06,262.12,208.21,264.62,205.81,267Z" transform="translate(-95.22 -31.93)"/><path class="cls-26" d="M219,163.06c-2.88,1.94-6.12.95-9.15.89-11.7-.26-23.42.33-35.09-.11-11.95-.46-23.94,1.36-35.83-.85.21-.74,0-1.69,1-2a14.26,14.26,0,0,1,7.22-1.38q17.35,0,34.72,0A38.89,38.89,0,0,1,191.1,161c7.56,2,15.29.52,22.91,1.2C215.55,163.11,217.47,161.88,219,163.06Z" transform="translate(-95.22 -31.93)"/><path class="cls-27" d="M201.93,226.1,194,221.83c4.91-1.31,9.85.59,14.82-.34,8.2-1.55,16.49.24,24.78-.14,4.33-.2,9-.55,13.45.7a3.08,3.08,0,0,1-2,3q-19.28,0-38.56,0C204.94,225,203.16,224.48,201.93,226.1Z" transform="translate(-95.22 -31.93)"/><path class="cls-28" d="M218.84,104.06c-1.24,1.45-.17,3.7-1.75,5a80.19,80.19,0,0,1-33.93,0,7.2,7.2,0,0,1,1-5c1.27-1.32,2.94-1.48,4.61-1.51,8.49-.18,17-.08,25.46,0A6.05,6.05,0,0,1,218.84,104.06Z" transform="translate(-95.22 -31.93)"/><path class="cls-29" d="M207.26,159l-.31,1c-7,.06-14.08.77-19.91-4.81-1.35-1.29-2-2.84-3.19-4.1h24.28Z" transform="translate(-95.22 -31.93)"/><path class="cls-30" d="M208.82,248v5a5.68,5.68,0,0,1-4.13,1.47c-8.81.14-17.61.09-26.42,0a5.42,5.42,0,0,1-4.11-1.49c-.47-1.83,1-3.26,1-5A82.74,82.74,0,0,1,208.82,248Z" transform="translate(-95.22 -31.93)"/><path class="cls-31" d="M96.93,221q36.88,0,73.78.07c1.76,0,3.68-.61,5.25.8-13.69.39-27.39,1.08-41.08,1.08-12.23,0-24.38,1.87-36.62,1.07-1-.07-2.56.67-3-.85C95,222.11,96,221.44,96.93,221Z" transform="translate(-95.22 -31.93)"/><path class="cls-32" d="M287.05,167.07,135.91,167l1-1,151.14.08Z" transform="translate(-95.22 -31.93)"/><path class="cls-33" d="M185.41,224.18c6.73.57,12.42,1.07,16.7,6.78-1.68,1.76-3.94,1.75-6,1.57-5.66-.48-11.56,1.58-17-1.53C179.48,227.12,176.58,224.81,185.41,224.18Z" transform="translate(-95.22 -31.93)"/><path class="cls-34" d="M185,99.05l2.17-3c7.4-2.55,15.05-1.4,22.58-1.21,3.32.09,7-1.28,10.07,1.21a5.33,5.33,0,0,1-1,5c-1.4,1.28-3.1.84-4.71.78-7.88-.34-15.75-.53-23.64-.27C188.44,101.63,185.65,102.38,185,99.05Z" transform="translate(-95.22 -31.93)"/><path class="cls-35" d="M203.82,276l.36,1.06-.36-.07c-.69,1.21.15,3.07-1.61,3.84-10.62,1.33-21.27.59-31.91.32a3.31,3.31,0,0,1-2.13-1.15c.32-1.33.65-2.66,1-4Z" transform="translate(-95.22 -31.93)"/><path class="cls-36" d="M185,99.05c1.78,1.49,3.84,1.29,6,1.2,9.29-.35,18.58-.45,27.83.8l0,3H184.16C183.93,102.3,183.56,100.53,185,99.05Z" transform="translate(-95.22 -31.93)"/><path class="cls-37" d="M219.81,96.06H187.16l3-4c2.64-1.91,5.69-1.43,8.64-1.5,5.8-.13,11.59.13,17.39.32,1.87.06,3.68.13,4.62,2.15C221.35,94.33,220.28,95.09,219.81,96.06Z" transform="translate(-95.22 -31.93)"/><path class="cls-38" d="M211.87,240a6.54,6.54,0,0,1-2-5h28.22c-1.59,1.46-2,3.89-4,5A36.53,36.53,0,0,1,211.87,240Z" transform="translate(-95.22 -31.93)"/><path class="cls-39" d="M210.1,142.07l-30.93,0-1-4a73.25,73.25,0,0,1,32.64,0C210.78,139.42,211.71,141,210.1,142.07Z" transform="translate(-95.22 -31.93)"/><path class="cls-40" d="M207.82,256c0,1.39.86,2.93-.72,4l-34.46-.16c.54-1.62-.08-3.55,1.32-5,9.72.49,19.45.08,29.18.21C204.74,255.14,206.47,254.55,207.82,256Z" transform="translate(-95.22 -31.93)"/><path class="cls-41" d="M225.81,69.07c.75,2.18-1.22,3.91-1,6a32.27,32.27,0,0,1-21.93,0c.29-2.69,3-3.76,4-6C213.19,66.83,219.5,66.44,225.81,69.07Z" transform="translate(-95.22 -31.93)"/><path class="cls-42" d="M220.81,93c-3.77-1.88-7.8-.63-11.69-.87-6.3-.38-12.64-.1-19-.1l2.72-4c2.51-1.57,5.31-1.47,8.11-1.46,5.26,0,10.52,0,15.78,0,1.82,0,3.64,0,5,1.47C222.6,90,220.92,91.33,220.81,93Z" transform="translate(-95.22 -31.93)"/><path class="cls-43" d="M142.19,158c.32-1.54,1.55-2.26,2.72-3a7.64,7.64,0,0,1,5.14-1.45c8.79,0,17.57,0,26.36,0a11.63,11.63,0,0,1,5.7,1.46l3,3c-1.39,1.55-3.28,1.41-5.08,1.42q-16.38.09-32.75,0C145.48,159.4,143.59,159.56,142.19,158Z" transform="translate(-95.22 -31.93)"/><path class="cls-44" d="M207.82,256c-10,.29-20,.6-30.06.86a4.52,4.52,0,0,1-3.8-1.93l.2-1.93h34.66C209.38,254.28,208.27,255,207.82,256Z" transform="translate(-95.22 -31.93)"/><path class="cls-45" d="M182.11,155h-37.2a3.09,3.09,0,0,1,2-3,6.14,6.14,0,0,1,3.63-1.39c8.39-.1,16.78-.08,25.17,0a7.77,7.77,0,0,1,4.13,1.44Z" transform="translate(-95.22 -31.93)"/><path class="cls-46" d="M181.88,115c.09-1,.19-2,.28-3a6.13,6.13,0,0,1,4.62-1.47q12.72,0,25.43,0c1.68,0,3.33.15,4.6,1.47.53,1.29-.53,2-1,3a4.81,4.81,0,0,1-3.61,1.34q-13.38.18-26.74,0A4.42,4.42,0,0,1,181.88,115Z" transform="translate(-95.22 -31.93)"/><path class="cls-47" d="M179.88,124l.29-3a87.07,87.07,0,0,1,34.64,0c.54,1.29-.53,2-1,3a4.81,4.81,0,0,1-3.61,1.34q-13.37.17-26.74,0A4.42,4.42,0,0,1,179.88,124Z" transform="translate(-95.22 -31.93)"/><path class="cls-48" d="M216.81,112.05H182.16c-.53-1.29.54-2,1-3l33.93,0Z" transform="translate(-95.22 -31.93)"/><path class="cls-49" d="M178.17,131c-.55-1.29.53-2,1-3a4.78,4.78,0,0,1,3.61-1.35q13.36-.17,26.74,0a4.42,4.42,0,0,1,3.58,1.37c-.1,1-.19,2-.29,3A87.26,87.26,0,0,1,178.17,131Z" transform="translate(-95.22 -31.93)"/><path class="cls-50" d="M179.1,231l23,0c1.86.69,1.89,2.74,3,4a3.93,3.93,0,0,1-3.08,1.32q-10.38.3-20.76,0a4.41,4.41,0,0,1-3.11-1.3A4,4,0,0,1,179.1,231Z" transform="translate(-95.22 -31.93)"/><path class="cls-51" d="M166.13,290a3,3,0,0,1,.8-3,4.29,4.29,0,0,1,2.2-1.09c9.62-.49,19.23-.46,28.85,0A3,3,0,0,1,200.1,287c-1.09,1.27-1.15,3.31-3,4-9.11,1-18.23.3-27.35.36A4.87,4.87,0,0,1,166.13,290Z" transform="translate(-95.22 -31.93)"/><path class="cls-52" d="M168.17,280H203a3.46,3.46,0,0,1-2,3.86c-10.2,1.12-20.42.44-30.63.37a3.3,3.3,0,0,1-2.58-1.29Z" transform="translate(-95.22 -31.93)"/><path class="cls-53" d="M210.81,138H178.17v-3a82.51,82.51,0,0,1,33.64,0C212.37,136.34,211.27,137.08,210.81,138Z" transform="translate(-95.22 -31.93)"/><path class="cls-54" d="M183.11,310c.08,2.42-2.48,3.1-3.28,5a25.65,25.65,0,0,1-18.65,0c-.54-1.55.1-2.82,1-4,.41-.72.84-1.62,1.67-1.72C170.3,308.38,176.79,307.24,183.11,310Z" transform="translate(-95.22 -31.93)"/><path class="cls-55" d="M207.82,243c.45,1,1.57,1.69,1,3-1.21,1.12-2.74,1-4.22,1q-12.37,0-24.75,0c-1.45,0-3,.23-4.15-1.07l.48-2.9a7.42,7.42,0,0,1,4.16-1.45c8-.06,15.92-.09,23.88,0A4.84,4.84,0,0,1,207.82,243Z" transform="translate(-95.22 -31.93)"/><path class="cls-56" d="M166.13,290q12.62,0,25.23,0c2,0,4,0,5.74,1.06l-1.28,2c-4.15,2.37-8.74,1.24-13.14,1.59-4.78.38-9.58-.41-14.38-.12a3.31,3.31,0,0,1-3-1.47Z" transform="translate(-95.22 -31.93)"/><path class="cls-57" d="M202.87,75l21.93,0c.64,1.57-1.18,2.53-1,4-4.58,2.87-9.64,1.19-14.46,1.4-3.17.14-6.64,1.08-9.48-1.43C200,77,201.4,76,202.87,75Z" transform="translate(-95.22 -31.93)"/><path class="cls-58" d="M179.83,152l-32.93,0a3.1,3.1,0,0,1,2-3c5.24-2.57,10.82-1.18,16.24-1.27,4.23-.07,8.69-1.18,12.69,1.32C178.5,150,179.17,151,179.83,152Z" transform="translate(-95.22 -31.93)"/><path class="cls-59" d="M207.82,243H176.17l1-3a5,5,0,0,1,3.59-1.43q11.37-.15,22.75,0A6.17,6.17,0,0,1,207.1,240C208.51,240.69,207.88,241.91,207.82,243Z" transform="translate(-95.22 -31.93)"/><path class="cls-60" d="M207.1,240l-30,0c0-1.08-.53-2.23.55-3.11a86.34,86.34,0,0,1,28.15.11Z" transform="translate(-95.22 -31.93)"/><path class="cls-61" d="M193.83,296c-.33,1.53-1.56,2.25-2.72,3a7.14,7.14,0,0,1-4.62,1.43c-5.93,0-11.86,0-17.78,0-1.68,0-3.31-.19-4.57-1.47a3.5,3.5,0,0,1,.82-3c2.65-1.78,5.66-1.52,8.6-1.4,5.08.2,10.14.18,15.22,0C190.6,294.46,192.43,294.47,193.83,296Z" transform="translate(-95.22 -31.93)"/><path class="cls-62" d="M191.1,161H139.91l1-1a8.51,8.51,0,0,1,4.65-1.47c13.39.26,26.77,0,40.15,0a3,3,0,0,1,1.4.43C188,160.46,190.25,159.36,191.1,161Z" transform="translate(-95.22 -31.93)"/><path class="cls-63" d="M213.15,253v-6a18.34,18.34,0,0,1,15.94.05q-2.15,3-4.28,5.95C220.92,255,217,255.31,213.15,253Z" transform="translate(-95.22 -31.93)"/><path class="cls-64" d="M221.81,88.06l-28.93,0,2.28-3a8.79,8.79,0,0,1,5.16-1.48c6,0,11.93,0,17.89,0,1.68,0,3.33.14,4.6,1.46Z" transform="translate(-95.22 -31.93)"/><path class="cls-65" d="M193.83,296,165,296l.36-3h30.5Z" transform="translate(-95.22 -31.93)"/><path class="cls-66" d="M164.14,299l27,0a3.1,3.1,0,0,1-2,3c-2.67,1.75-5.69,1.53-8.64,1.42-5.75-.21-11.53.62-17.24-.49C163.53,301.61,163.83,300.29,164.14,299Z" transform="translate(-95.22 -31.93)"/><path class="cls-67" d="M222.81,85.06H195.16c.33-1.53,1.55-2.25,2.72-3,4.93-2.83,10.3-1.11,15.46-1.36,3.15-.15,6.62-1.07,9.47,1.39Z" transform="translate(-95.22 -31.93)"/><path class="cls-68" d="M218.17,161.93l72.66.18-.87,1H276.58a12.49,12.49,0,0,1-7.14,0H255.06a12.37,12.37,0,0,1-7.13,0H233.55a12.37,12.37,0,0,1-7.13,0h-9.24c-1.7-.24-3.6.54-5.09-.84Z" transform="translate(-95.22 -31.93)"/><path class="cls-69" d="M175.83,144.05c.34,1,.67,2,1,3-5.91,2.08-12,.67-18,.91-2.86.12-5.93.92-8.64-.91.31-1.55,1.57-2.25,2.72-3A37.79,37.79,0,0,1,175.83,144.05Z" transform="translate(-95.22 -31.93)"/><path class="cls-70" d="M222.81,82.06l-24.93,0a3.1,3.1,0,0,1,2-3l23.94,0C224.37,80.36,223.27,81.11,222.81,82.06Z" transform="translate(-95.22 -31.93)"/><path class="cls-71" d="M163.23,302.93c5.4-2.07,11-.56,16.53-.93,3.1-.21,6.23,0,9.35,0l-2,3A44.39,44.39,0,0,1,163,305Z" transform="translate(-95.22 -31.93)"/><path class="cls-72" d="M225.81,69.07l-18.94,0c1.1-1.26,1.14-3.31,3-4,5.65-2.05,11.29-2.43,16.93,0C227.45,66.65,225.61,67.6,225.81,69.07Z" transform="translate(-95.22 -31.93)"/><path class="cls-73" d="M229.09,247,213.15,247l-1-4a28.74,28.74,0,0,1,19.94,0C231,244.29,230.93,246.33,229.09,247Z" transform="translate(-95.22 -31.93)"/><path class="cls-74" d="M215.81,117.05c.16.82.32,1.63-.7,2-1.28,1-2.78.94-4.27,1q-12.89,0-25.77,0c-1.46,0-3,.22-4.19-1l.29-2a4.27,4.27,0,0,1,3.22-1c9.4,0,18.8-.15,28.2,0A4.42,4.42,0,0,1,215.81,117.05Z" transform="translate(-95.22 -31.93)"/><path class="cls-75" d="M179.88,124l33.93,0v2c-1.06,1-2.4,1-3.72,1q-13.6,0-27.2,0c-1.32,0-2.66,0-3.72-1C179,125.23,178.87,124.42,179.88,124Z" transform="translate(-95.22 -31.93)"/><path class="cls-76" d="M180.88,119l34.23.08-.3,2H180.17C180,120.23,179.87,119.42,180.88,119Z" transform="translate(-95.22 -31.93)"/><path class="cls-77" d="M178.17,131h34.64c.17.83.31,1.64-.72,2-1.43,1.1-3.13.95-4.78.95q-12.19,0-24.4,0c-1.63,0-3.35.27-4.74-1Z" transform="translate(-95.22 -31.93)"/><path class="cls-78" d="M179.17,126.05h34.64c.17.82.31,1.63-.71,2l-33.93,0Z" transform="translate(-95.22 -31.93)"/><path class="cls-79" d="M167.8,282.91,202,283c.3.23.41.48.32.73s-.17.38-.27.38a2.28,2.28,0,0,1-.21.89,6.09,6.09,0,0,1-3.76,1c-9.22,0-18.45,0-27.68,0a4.45,4.45,0,0,1-3.22-1A2,2,0,0,1,167.8,282.91Z" transform="translate(-95.22 -31.93)"/><path class="cls-80" d="M183.11,310c-7,.46-14-1.18-21,.94l.12-4a57,57,0,0,1,23.55,0C185.51,308.49,184.28,309.21,183.11,310Z" transform="translate(-95.22 -31.93)"/><path class="cls-81" d="M167.16,285h34.66c0,1.13-.88,1.58-1.72,2l-33.17-.07Z" transform="translate(-95.22 -31.93)"/><path class="cls-82" d="M215.81,117.05H181.17c-.17-.82-.3-1.63.71-2l33.93,0Z" transform="translate(-95.22 -31.93)"/><path class="cls-83" d="M175.69,245.89l33.12.1v2H175.17C175,247.21,174.82,246.42,175.69,245.89Z" transform="translate(-95.22 -31.93)"/><path class="cls-84" d="M178.17,133l33.92,0-.28,2H178.17Z" transform="translate(-95.22 -31.93)"/><path class="cls-85" d="M175.83,144.05,152.9,144a3.11,3.11,0,0,1,2-3,29.55,29.55,0,0,1,19.94,0Z" transform="translate(-95.22 -31.93)"/><path class="cls-59" d="M232.09,243l-19.94,0c-.1-1-.19-2-.28-3h22.21Z" transform="translate(-95.22 -31.93)"/><path class="cls-86" d="M159.18,325c0-1.38-.9-2.94.72-4a17.51,17.51,0,0,1,15.22.08c-.07,2-1.53,3-3,4A13.4,13.4,0,0,1,159.18,325Z" transform="translate(-95.22 -31.93)"/><path class="cls-87" d="M174.84,141l-19.94,0a3.12,3.12,0,0,1,2-3c5.65-2,11.3-2.44,16.94.05C174.29,139,175.4,139.74,174.84,141Z" transform="translate(-95.22 -31.93)"/><path class="cls-88" d="M187.11,159c-8.93.5-17.92-.34-26.78.28-6.49.45-13-1.36-19.42.72l1.28-2,42.92,0C185.91,158.06,186.79,158,187.11,159Z" transform="translate(-95.22 -31.93)"/><path class="cls-89" d="M150.18,147h26.66l1,2-28.93,0Z" transform="translate(-95.22 -31.93)"/><path class="cls-90" d="M205.82,237l-28.15-.11.48-1.89,26.95,0C206.15,235.35,206,236.17,205.82,237Z" transform="translate(-95.22 -31.93)"/><path class="cls-91" d="M211.86,62q1.5-2,3-4a21,21,0,0,1,13.22.08l-.29,4C222.49,64.24,217.17,64.57,211.86,62Z" transform="translate(-95.22 -31.93)"/><path class="cls-92" d="M161.18,315h18.65l-2,3c-5.88,2.15-11.77,2.49-17.65,0C160.51,317,160.84,316,161.18,315Z" transform="translate(-95.22 -31.93)"/><path class="cls-93" d="M160.18,318h17.65c-.31,1.53-1.55,2.25-2.71,3l-15.22-.08C160,319.93,160.08,318.94,160.18,318Z" transform="translate(-95.22 -31.93)"/><path class="cls-94" d="M211.86,62l15.94,0c-.33,1-.66,2-1,3l-16.93,0Z" transform="translate(-95.22 -31.93)"/><path class="cls-53" d="M173.84,138.05,156.9,138l2-3c5-1.76,10-2.38,14.93.05Z" transform="translate(-95.22 -31.93)"/><path class="cls-95" d="M185.83,307H162.28l.69-2,24.14,0Z" transform="translate(-95.22 -31.93)"/><path class="cls-96" d="M228.09,58.12A47.21,47.21,0,0,1,214.87,58l2-3c4-1.64,8-2.3,11.94,0C228.87,56.16,229.49,57.38,228.09,58.12Z" transform="translate(-95.22 -31.93)"/><path class="cls-97" d="M230.09,49.12c-.52,1.29.66,3-1,4A12.1,12.1,0,0,1,218.86,53c.07-2,1.53-3,3-4C224.62,47.25,227.37,47,230.09,49.12Z" transform="translate(-95.22 -31.93)"/><path class="cls-98" d="M159.18,325l12.94,0a3.09,3.09,0,0,1-2,3,12.05,12.05,0,0,1-11.94,0C157.58,326.64,158.73,325.92,159.18,325Z" transform="translate(-95.22 -31.93)"/><path class="cls-99" d="M213.15,253h11.66c-.67,1-1.34,2-2,3-3.35,2.48-7,2.12-10.66,1C211.52,255.41,213.33,254.44,213.15,253Z" transform="translate(-95.22 -31.93)"/><path class="cls-100" d="M168.13,331l-2,3c-3,1.48-6,2.3-8.94,0a4.07,4.07,0,0,1,1-4C161.61,329.18,165.11,327.78,168.13,331Z" transform="translate(-95.22 -31.93)"/><path class="cls-49" d="M161.89,131l2-3c3.42-1.45,6.84-2.34,10.23.08-.09,1-.19,2-.28,3A11.85,11.85,0,0,1,161.89,131Z" transform="translate(-95.22 -31.93)"/><path class="cls-101" d="M212.15,257l10.66-1-3,4c-2.89,1.71-5.77,2.13-8.66,0Z" transform="translate(-95.22 -31.93)"/><path class="cls-102" d="M230.09,49.12,221.86,49c-.19-1.86,1.66-2.56,2.28-4,2.22-1.35,4.44-2,6.66,0C230.78,46.47,231.69,48,230.09,49.12Z" transform="translate(-95.22 -31.93)"/><path class="cls-84" d="M173.83,135.05,158.9,135c.66-.67,1.33-1.34,2-2a18.59,18.59,0,0,1,12.94.05C173.84,133.71,173.83,134.38,173.83,135.05Z" transform="translate(-95.22 -31.93)"/><path class="cls-103" d="M168.13,331c-3.21-1.38-6.69-.14-9.95-1v-2l11.94,0A3.09,3.09,0,0,1,168.13,331Z" transform="translate(-95.22 -31.93)"/><path class="cls-104" d="M209.15,267c-.62-1.57,1.18-2.54,1-4,2.32-1.48,4.64-2,6.95,0,.16,1.85-1.65,2.56-2.29,4C212.92,268.16,211,268.74,209.15,267Z" transform="translate(-95.22 -31.93)"/><path class="cls-77" d="M173.84,133.05,160.9,133c.18-.74,0-1.67,1-2l12,0Z" transform="translate(-95.22 -31.93)"/><path class="cls-105" d="M157.18,334l8.94,0-2.28,3c-2.55,1.56-5.11,2-7.66,0C155.58,335.64,156.74,334.91,157.18,334Z" transform="translate(-95.22 -31.93)"/><path class="cls-106" d="M217.1,263l-6.95,0c.33-1,.66-2,1-3h8.66C219.49,261.52,218.25,262.23,217.1,263Z" transform="translate(-95.22 -31.93)"/><path class="cls-107" d="M209.15,267h5.66l-3.71,5c-1.1.63-2.19.91-3.24-.08C208,270.22,207.78,268.39,209.15,267Z" transform="translate(-95.22 -31.93)"/><path class="cls-108" d="M178.12,115.09a5.77,5.77,0,0,1-1.29,4c-2,1.55-4,1.69-5.94,0,.08-2,1.54-3,3-4S176.73,113.76,178.12,115.09Z" transform="translate(-95.22 -31.93)"/><path class="cls-109" d="M218.86,53l10.22.08-.28,2-11.94,0Z" transform="translate(-95.22 -31.93)"/><path class="cls-110" d="M170.89,119l5.94,0c.54,1.29-.53,2-1,3-2.33,1.67-4.65,1.84-7,0A3.17,3.17,0,0,1,170.89,119Z" transform="translate(-95.22 -31.93)"/><path class="cls-111" d="M232.8,37.08c-.33,1.67-.66,3.33-1,5-1.66,1.33-3.31,1.47-4.94,0,.22-2.13,2-3.36,3-5A2.22,2.22,0,0,1,232.8,37.08Z" transform="translate(-95.22 -31.93)"/><path class="cls-112" d="M161.84,340c-.29,1.86-2.4,2.36-3,4-1.22.86-2.44,1.19-3.66,0,0-1.39-.91-2.95.72-4.05C157.89,338.55,159.87,338.17,161.84,340Z" transform="translate(-95.22 -31.93)"/><path class="cls-78" d="M174.12,128.08,163.89,128c.67-.67,1.34-1.33,2-2,3-1.71,6-2,8.94,0C175,126.87,175.14,127.68,174.12,128.08Z" transform="translate(-95.22 -31.93)"/><path class="cls-113" d="M161.84,340l-5.94-.05c.09-1,.19-2,.28-2.95h7.66Z" transform="translate(-95.22 -31.93)"/><path class="cls-114" d="M226.86,42.05l4.94,0c.6,1.31-.55,2-1,3h-6.66C224.46,43.55,225.69,42.82,226.86,42.05Z" transform="translate(-95.22 -31.93)"/><path class="cls-115" d="M175.88,112c1.77-2.62,3.29-4.67,6-8.28a40.05,40.05,0,0,1-2.77,8.35A2.35,2.35,0,0,1,175.88,112Z" transform="translate(-95.22 -31.93)"/><path class="cls-75" d="M174.83,126.05l-8.94,0c.19-.74,0-1.67,1-2,2.76-1.16,5.5-1.66,8.23.08Z" transform="translate(-95.22 -31.93)"/><path class="cls-116" d="M175.12,124.08l-8.23-.08c.67-.66,1.33-1.33,2-2l7,0C176,122.87,176.13,123.68,175.12,124.08Z" transform="translate(-95.22 -31.93)"/><path class="cls-117" d="M207.86,271.94l3.24.08c-1.52,2.12-3,4.24-4.57,6.35,0,.06-.29,0-.41,0a1.5,1.5,0,0,1-.31-.35A13,13,0,0,1,207.86,271.94Z" transform="translate(-95.22 -31.93)"/><path class="cls-118" d="M155.18,344h3.66c-.5,2.19-1.86,3-3.9,5.93C154.65,344.71,154.09,345.57,155.18,344Z" transform="translate(-95.22 -31.93)"/><path class="cls-46" d="M175.88,112l3.23.07c-.35,1,.41,2.35-1,3l-4.23-.08A3.11,3.11,0,0,1,175.88,112Z" transform="translate(-95.22 -31.93)"/><path class="cls-119" d="M232.8,37.08l-3,0c1.33-1.15,1.61-3.29,3.48-4C235.18,30.86,234.49,31.75,232.8,37.08Z" transform="translate(-95.22 -31.93)"/><path class="cls-120" d="M202,284.08c0-.37,0-.74-.05-1.11l1-3c.05-1.07-.15-2.21.85-3C204,279.53,205.27,282.37,202,284.08Z" transform="translate(-95.22 -31.93)"/><path class="cls-10" d="M284.49,161" transform="translate(-95.22 -31.93)"/><path class="cls-10" d="M291.93,161" transform="translate(-95.22 -31.93)"/><path class="cls-26" d="M270,163.05h6.95A5.84,5.84,0,0,1,270,163.05Z" transform="translate(-95.22 -31.93)"/><path class="cls-26" d="M228,163.05h7A5.85,5.85,0,0,1,228,163.05Z" transform="translate(-95.22 -31.93)"/><path class="cls-26" d="M249,163.05h7A5.85,5.85,0,0,1,249,163.05Z" transform="translate(-95.22 -31.93)"/><path class="cls-13" d="M218,212c2.33.51,4.66-1,7,0A5.75,5.75,0,0,1,218,212Z" transform="translate(-95.22 -31.93)"/><path class="cls-13" d="M226,212c2-1.06,4,.47,6,0A4.52,4.52,0,0,1,226,212Z" transform="translate(-95.22 -31.93)"/><path class="cls-13" d="M237,212h7A5.76,5.76,0,0,1,237,212Z" transform="translate(-95.22 -31.93)"/><path class="cls-13" d="M208,212h6A4.52,4.52,0,0,1,208,212Z" transform="translate(-95.22 -31.93)"/><path class="cls-13" d="M201,212h5A3.34,3.34,0,0,1,201,212Z" transform="translate(-95.22 -31.93)"/></svg>